<?xml version="1.0" encoding="UTF-8"?>
<svg width="19px" height="22px" viewBox="0 0 19 22" version="1.1" xmlns="http://www.w3.org/2000/svg" xmlns:xlink="http://www.w3.org/1999/xlink">
    <title>A0D051A8-D56E-49B2-A89B-B6AC0AA7335C@3x</title>
    <g id="Original" stroke="none" stroke-width="1" fill="none" fill-rule="evenodd">
        <g id="ASSETS" transform="translate(-331.000000, -357.000000)" fill="#006FD3">
            <path d="M343.666057,377.049148 L343.666057,372.713249 L348.034924,372.713249 L343.666057,377.049148 Z M332.583029,364.856625 L348.415753,364.856625 L348.415753,371.142166 L343.666057,371.142166 C342.795331,371.142166 342.083029,371.849093 342.083029,372.713249 L342.083029,377.427103 L332.583029,377.427103 L332.583029,364.856625 Z M334.166057,360.142771 L334.166057,360.928312 C334.166057,361.361902 334.520685,361.713854 334.958181,361.713854 C335.395068,361.713854 335.749695,361.361902 335.749695,360.928312 L335.749695,360.142771 L345.249086,360.142771 L345.249086,360.928312 C345.249086,361.361902 345.603714,361.713854 346.04121,361.713854 C346.478096,361.713854 346.832724,361.361902 346.832724,360.928312 L346.832724,360.142771 L348.415753,360.142771 L348.415753,363.285542 L332.583029,363.285542 L332.583029,360.142771 L334.166057,360.142771 Z M350,372.666685 L350,372.650962 L350,360.142771 C350,359.278615 349.286479,358.571083 348.415753,358.571083 L346.832724,358.571083 L346.832724,357.785542 C346.832724,357.351347 346.478096,357 346.04121,357 C345.603714,357 345.249086,357.351347 345.249086,357.785542 L345.249086,358.571083 L335.749695,358.571083 L335.749695,357.785542 C335.749695,357.351347 335.395068,357 334.958181,357 C334.520685,357 334.166057,357.351347 334.166057,357.785542 L334.166057,358.571083 L332.583029,358.571083 C331.712302,358.571083 331,359.278615 331,360.142771 L331,377.427103 C331,378.291259 331.712302,378.998791 332.583029,378.998791 L343.603297,378.998791 C343.606343,378.998791 343.608781,379 343.611218,379 C343.613655,379 343.616702,378.998791 343.619749,378.998791 L343.666057,378.998791 L343.666057,378.98972 C343.849464,378.976416 344.031044,378.909291 344.171189,378.769599 L349.768456,373.214568 C349.90921,373.075481 349.976846,372.895272 349.989641,372.713249 L350,372.713249 L350,372.666685 Z" id="CALENDARIO"></path>
        </g>
    </g>
</svg>