<?xml version="1.0" encoding="UTF-8"?>
<svg width="119px" height="119px" viewBox="0 0 119 119" version="1.1" xmlns="http://www.w3.org/2000/svg" xmlns:xlink="http://www.w3.org/1999/xlink">
    <title>DEC171B4-9D0E-4B26-82E4-3C47039BFFE5@3x</title>
    <defs>
        <circle id="path-1" cx="57.6" cy="57.6" r="57.6"></circle>
        <circle id="path-3" cx="59.2" cy="59.2" r="59.2"></circle>
    </defs>
    <g id="Original" stroke="none" stroke-width="1" fill="none" fill-rule="evenodd">
        <g id="ASSETS" transform="translate(-36.000000, -512.000000)">
            <g id="FIRMA" transform="translate(36.000000, 512.000000)">
                <g id="Group-58" transform="translate(2.000000, 0.000000)">
                    <mask id="mask-2" fill="white">
                        <use xlink:href="#path-1"></use>
                    </mask>
                    <circle stroke="#EF6663" stroke-width="4.8" cx="57.6" cy="57.6" r="55.2"></circle>
                </g>
                <rect id="Rectangle" stroke="#DADADA" stroke-width="2.4" fill="#FFFFFF" x="16.2" y="40.2" width="90.6" height="29.6" rx="14.8"></rect>
                <g id="Group-58">
                    <path d="M35.9882018,48.0270379 C26.9294006,47.6987878 22.4,50.3593488 22.4,56.008721 C22.4,64.4827793 38.8652008,69.177093 42.9367036,62.2706989 C45.6510388,57.6664363 43.3348715,55.84287 35.9882018,56.8 C38.5986327,62.8541609 42.3233872,65.2794843 47.1624654,64.0759702 C52.0015436,62.872456 53.629833,60.4471326 52.0473338,56.8 L52.0473338,50.948571 C47.2183137,58.3144675 48.665664,62.6902672 56.3893845,64.0759702 C64.1131051,65.4616731 67.0655579,64.0844808 65.2467429,59.9443933 C68.4045468,63.902292 71.5904432,65.2794843 74.8044321,64.0759702 C78.0184211,62.872456 80.6106994,61.4952637 82.5812673,59.9443933 C84.8925554,63.902292 86.9955679,65.2794843 88.8903047,64.0759702 C90.7850416,62.872456 92.6216066,61.3078508 94.4,59.3821544 L91.4270083,48.0270379 C89.8542936,57.7180566 90.8452909,63.0677007 94.4,64.0759702" id="Path-5" stroke="#979797" stroke-width="1.6"></path>
                    <g id="Path">
                        <mask id="mask-4" fill="white">
                            <use xlink:href="#path-3"></use>
                        </mask>
                        <g id="Mask"></g>
                        <path d="M77.743958,61.2850018 L78.9964036,61.5454626 L87.3639209,63.1247231 C90.8199357,63.7769467 93.8170349,65.8972841 95.5678035,68.9263375 C98.1305362,72.1681281 99.8095426,76.944773 100.604823,83.2562722 C101.797743,92.723521 99.055848,95.8817375 102.507155,102.335289 L102.809646,102.929766 L104.787524,107.196675 C106.278596,110.367566 108.392953,114.768045 110.4,118.607944 L109.914246,119.119601 L109.273366,119.766012 C106.652677,122.356219 100.106969,128.211346 96.633767,125.850802 C96.5931658,124.909108 96.4369131,123.90268 96.3015761,122.979308 C95.6052058,118.241526 93.4262801,113.005416 90.8438042,109.00047 C89.0604727,106.231492 86.6126503,104.160477 84.2115565,101.961219 L83.0355795,100.878722 L82.0884158,100.014028 C80.6036558,98.6449667 79.5574018,97.5458538 78.4887669,95.3587373 C77.3445541,93.0051139 74.7756119,85.4117167 73.5009834,83.1264913 C70.9529569,78.5951249 68.9807278,76.9682302 64.7151518,70.4716434 L64.6715731,70.3855828 C64.188112,69.1921806 65.7357805,63.2700881 72.9534838,69.8145342 C74.4740098,71.1848523 77.43625,76.144072 78.8734838,79.1108011 L79.3522206,80.1185586 L79.6741558,80.7708865 C82.2938808,85.9663253 83.3448048,85.2340451 83.4204415,85.1713294 L83.5069777,85.1588785 C83.8618503,85.0946278 85.1702132,84.1625115 85.4093677,81.7186735 C85.5412077,78.5284509 85.5412077,76.270571 85.4093677,74.9450341 C85.2775277,73.6194972 84.8816059,71.8967292 84.2216027,69.7767299 L83.4046987,69.4918423 L76.0558998,66.6447763 L74.5426363,66.1977927 L73.8052276,65.9734023 C70.4569417,64.9434794 66.7779816,63.6548197 65.7493725,62.654487 C64.7798675,61.7201217 64.2471319,61.0031643 64.0711938,60.4865152 C63.1555775,57.8215307 71.2563436,59.9068051 77.743958,61.2850018 Z" fill="#FFC4B2" fill-rule="nonzero" mask="url(#mask-4)"></path>
                    </g>
                </g>
            </g>
        </g>
    </g>
</svg>