<?xml version="1.0" encoding="UTF-8"?>
<svg width="186px" height="118px" viewBox="0 0 186 118" version="1.1" xmlns="http://www.w3.org/2000/svg" xmlns:xlink="http://www.w3.org/1999/xlink">
    <title>5DD24A7B-ECCE-4241-A91B-33F2AB34560D@3x</title>
    <defs>
        <linearGradient x1="-4.50772372%" y1="22.6249758%" x2="143.496982%" y2="126.2374%" id="linearGradient-1">
            <stop stop-color="#FFFFFF" offset="0%"></stop>
            <stop stop-color="#E6E8EF" offset="100%"></stop>
        </linearGradient>
        <rect id="path-2" x="0" y="0" width="176" height="108" rx="5"></rect>
        <filter x="-4.3%" y="-6.9%" width="108.5%" height="113.9%" filterUnits="objectBoundingBox" id="filter-3">
            <feMorphology radius="0.5" operator="dilate" in="SourceAlpha" result="shadowSpreadOuter1"></feMorphology>
            <feOffset dx="0" dy="0" in="shadowSpreadOuter1" result="shadowOffsetOuter1"></feOffset>
            <feGaussianBlur stdDeviation="2" in="shadowOffsetOuter1" result="shadowBlurOuter1"></feGaussianBlur>
            <feColorMatrix values="0 0 0 0 0.54112885   0 0 0 0 0.54112885   0 0 0 0 0.54112885  0 0 0 0.123442963 0" type="matrix" in="shadowBlurOuter1"></feColorMatrix>
        </filter>
        <linearGradient x1="50%" y1="0%" x2="50%" y2="100%" id="linearGradient-4">
            <stop stop-color="#EFEFEF" offset="0%"></stop>
            <stop stop-color="#E0E0E0" offset="100%"></stop>
        </linearGradient>
    </defs>
    <g id="Original" stroke="none" stroke-width="1" fill="none" fill-rule="evenodd">
        <g id="ASSETS" transform="translate(-170.000000, -496.000000)">
            <g id="FRENTE" transform="translate(175.000000, 501.000000)">
                <g id="Group-15-Copy-3">
                    <g id="Group-4" transform="translate(3.000000, 15.000000)" fill="#01155C">
                        <path d="M173,73 L173,74.6478015 C173,84.4040052 164.586613,92.4471049 154.074537,93 L154.074537,93 L154,92.9412277 C159.5274,89.0513714 167.60537,80.6991728 173,73 L173,73 Z M51,81 C53.3924192,81.3148148 55.4481605,81.8263889 57.3299889,82.462963 C57.9319955,83.1296296 58.4693423,83.6990741 58.8528428,84.0717593 C62.5585284,87.7291667 66.6410256,90.7037037 71,93 L71,93 L63.173913,93 C60.703456,91.25 58.3377926,89.275463 56.1059086,87.0763889 L56.1059086,87.0763889 L55.9447807,86.9158783 C55.2348466,86.2021198 52.9824907,83.8634259 51.0044593,81.0648148 C51.0044593,81.0416667 51,81.0208333 51,81 Z M9,70 C10.6770125,70.5997276 12.2293822,71.4858922 13.7545571,72.5846468 C17.7249975,80.9785951 24.1271061,87.9694493 32,93 L32,93 L30.6379939,93 C28.0930141,91.9929947 25.5525668,90.9725628 22.998522,89.9319907 C22.1985417,89.6052734 21.3758991,89.2785561 20.5713863,88.9518389 C15.7601734,84.1584939 11.8463888,78.5259778 9.19036358,72.2019848 C9.11557789,71.4814166 9.04985713,70.7518973 9,70 Z M142.96094,10.2994917 C155.434777,10.2994917 165.581254,20.451235 165.581254,32.927008 C165.581254,56.7999456 151.483676,79.7631052 129.704463,92.6136931 L129.042142,93 L120.072957,93 C144.889065,82.0811453 161.525385,58.0260755 161.525385,32.9315471 C161.525385,22.691291 153.198152,14.3597351 142.96094,14.3597351 C132.728265,14.3597351 124.401031,22.691291 124.401031,32.9315471 C124.401031,37.4933634 128.107569,41.2018249 132.667018,41.2018249 C137.139807,41.2018249 140.797536,37.629442 140.931474,33.1840853 L140.935274,32.9315471 L140.935274,30.9002907 L144.991142,30.9002907 L144.991142,32.9315471 C144.991142,39.7311498 139.460825,45.2620683 132.667018,45.2620683 C125.870943,45.2620683 120.345162,39.7311498 120.345162,32.9315471 C120.345162,20.4535045 130.489371,10.2994917 142.96094,10.2994917 Z M142.964342,-5.18696197e-13 C156.184504,-5.18696197e-13 167.593276,7.85268455 172.82215,19.1324488 L173,19.5227578 L173,53.073668 C171.516211,58.2258369 169.503959,63.1890276 166.978374,67.8932307 L166.498815,68.7722167 L163.828928,73.2205549 C159.207685,80.3882959 153.38744,86.8536121 146.627494,92.4081397 L145.89963,92.999773 L139.187485,92.999773 C159.04264,78.980699 171.818173,57.2723546 171.820441,32.9290506 C171.818173,17.0103546 158.872511,4.05797384 142.964342,4.05797384 C127.0471,4.05797384 114.101439,17.0103546 114.101439,32.9313202 C114.101439,45.1273018 125.724548,54.0422993 137.492502,50.8699063 L137.849139,50.7700643 L142.329195,49.4650671 L140.224136,53.6342494 C134.671135,64.6143822 125.230125,71.1711419 114.965692,71.1711419 C104.515253,71.1711419 99.4159279,67.505802 85.8283144,67.1721767 C86.3523109,80.2357658 91.5151503,88.7988169 104.4903,86.7993343 C109.993397,87.7253149 114.189906,87.6799237 118.51798,87.1601944 C111.567655,89.9994143 103.954962,91.5744892 95.9838646,91.5744892 C83.7619136,91.5744892 77.1629938,88.3906602 71.1245278,84.9757608 L70.4907512,84.6155718 C70.2800365,84.4953094 70.0697931,84.37489 69.8598023,84.2544413 L69.107016,83.822335 C68.4521053,83.4465127 67.7971072,83.071892 67.1353599,82.7023584 L66.4711161,82.3346643 C61.3575491,79.5308836 55.7167558,77.1022369 46.5467282,76.7996515 C46.6555633,85.0554136 47.8518241,89.838311 50.050329,92.8123794 L50.1920194,92.999773 L39.3128552,92.999773 C25.294249,82.2443267 19.5507035,65.9466141 4.06445364,64.6552343 C4.14071209,78.5504515 6.42801181,87.10047 17.7173814,92.8063525 L18.1057437,92.999773 L9.92141823,92.999773 C9.92141823,92.999773 -0.0298132168,87.5722466 6.71564712e-05,63.284066 L0.00404829545,62.5422736 L0.00404829545,60.5132867 L2.03425097,60.5132867 C13.8520721,60.5132867 20.6877894,67.2920224 27.494248,75.0887703 L28.2108232,75.9129918 C33.1096061,81.5674637 38.0831648,87.6440646 44.9747388,91.9988969 C42.845559,87.2161768 42.4969086,81.2945989 42.476031,75.3514598 L42.4749809,74.7366212 L42.4749809,72.7076343 L44.5029152,72.7076343 C68.2937148,72.7076343 70.8433772,84.7953125 89.2354255,87.1125336 C84.4197747,82.8668587 81.8307883,75.4663806 81.7365513,65.6750019 L81.7338833,65.1182246 L81.7338833,63.0869681 L83.7595492,63.0869681 C99.4136595,63.0869681 104.728481,67.1108985 114.965692,67.1108985 C122.485382,67.1108985 129.549126,62.839586 134.455638,55.4930193 C121.249113,56.5302083 110.047838,46.0561875 110.047838,32.9313202 C110.047838,14.7725681 124.812743,-5.18696197e-13 142.964342,-5.18696197e-13 Z M142.962301,20.6012529 C149.758376,20.6012529 155.286425,26.1344409 155.286425,32.9317741 C155.286425,49.8173028 148.138751,65.1413741 136.168494,73.9223029 C122.440241,83.9923421 104.526821,83.161683 91.5357926,76.1895937 C91.0163329,74.8051619 90.6034872,73.2437044 90.3222078,71.4938734 C90.8416674,71.5460733 91.3089543,71.609621 91.8057302,71.6686296 C100.788526,77.1677742 118.776803,81.6546949 133.766277,70.649597 C144.70215,62.6289708 151.228288,48.5281926 151.228288,32.9317741 C151.228288,28.3699579 147.519482,24.6592267 142.962301,24.6592267 C138.487285,24.6592267 134.8317,28.2337959 134.697843,32.6792336 L134.694045,32.9317741 L134.694045,34.960761 L130.638177,34.960761 L130.638177,32.9317741 C130.638177,26.1344409 136.168494,20.6012529 142.962301,20.6012529 Z" id="Combined-Shape"></path>
                    </g>
                    <g id="Group-8">
                        <g id="Rectangle-Copy">
                            <use fill="black" fill-opacity="1" filter="url(#filter-3)" xlink:href="#path-2"></use>
                            <use fill="url(#linearGradient-1)" fill-rule="evenodd" xlink:href="#path-2"></use>
                        </g>
                        <g id="Group-13" transform="translate(13.000000, 12.000000)" fill="#FF6D6A">
                            <rect id="Rectangle-Copy-14" x="55.5" y="20" width="52" height="3" rx="1"></rect>
                            <rect id="Rectangle-Copy-14" x="15.5" y="4" width="33" height="3" rx="1"></rect>
                            <rect id="Rectangle-Copy-14" x="55.5" y="34" width="52" height="3" rx="1"></rect>
                            <rect id="Rectangle-Copy-14" x="55.5" y="47" width="52" height="3" rx="1"></rect>
                            <rect id="Rectangle-Copy-14" x="55.5" y="61" width="28" height="3" rx="1"></rect>
                            <ellipse id="Oval" cx="5" cy="5.5" rx="5" ry="5.5"></ellipse>
                        </g>
                    </g>
                    <path d="M116.5,87 L116.5,101 L114.5,101 L114.5,87 L116.5,87 Z M155.5,87 L155.5,101 L153.5,101 L153.5,87 L155.5,87 Z M118.5,87 L118.5,101 L117.5,101 L117.5,87 L118.5,87 Z M157.5,87 L157.5,101 L156.5,101 L156.5,87 L157.5,87 Z M120.5,87 L120.5,101 L119.5,101 L119.5,87 L120.5,87 Z M159.5,87 L159.5,101 L158.5,101 L158.5,87 L159.5,87 Z M123.5,87 L123.5,101 L121.5,101 L121.5,87 L123.5,87 Z M162.5,87 L162.5,101 L160.5,101 L160.5,87 L162.5,87 Z M152.5,87 L152.5,101 L124.5,101 L124.5,87 L152.5,87 Z" id="Combined-Shape-Copy-2" fill="#D9D9D6"></path>
                </g>
                <g id="Group-18" transform="translate(15.000000, 32.000000)">
                    <rect id="Rectangle" fill="#FFFFFF" x="0.0147428115" y="0" width="44" height="52"></rect>
                    <path d="M44.0147428,52 C44.0147428,52 44.4922819,45.8964844 42.0992155,44.972168 C37.6033368,43.2356451 28.0325651,41.2416992 28.0325651,41.2416992 L16.2601041,41.2416992 C16.2601041,41.2416992 6.22222069,43.2135513 2.71811195,44.5771484 C-0.364021201,45.776537 0.0147428115,52 0.0147428115,52 L44.0147428,52 Z" id="Path" fill="#FFBA05" fill-rule="nonzero"></path>
                    <path d="M16.2601041,41.2416992 C16.2601041,42.7670877 18.4459765,45.6947407 22.8177213,50.0246582 C26.2942838,45.6946501 28.0325651,42.7669971 28.0325651,41.2416992 C28.0325651,41.2416992 27.6262065,33.4567897 28.9157918,31.0792873 C30.4843034,28.18769 12.8514955,28.3886804 15.2370817,31.2056707 C17.2677191,33.604101 16.2601041,41.2416992 16.2601041,41.2416992 Z" id="Path" fill="#E4E4E4" fill-rule="nonzero"></path>
                    <path d="M11.0118334,19.5185547 C11.0118334,19.5185547 10.7756969,31.3437439 13.8124381,35.0075697 C16.8490304,38.6711311 17.7383266,40.1420898 21.8238477,40.1312414 C21.9344886,40.1362649 22.4026646,40.1420898 22.5088381,40.1420898 C26.318725,40.132299 27.2314003,38.5715872 30.1856448,35.0075697 C31.4548129,33.4759411 32.0693685,31.0905876 32.3548308,28.8330681 C32.3548308,28.8330681 32.8373023,26.0279907 32.9622386,23.8865397 C33.1448034,20.7619434 32.7715448,15.6490878 31.9187318,14.3991699 C30.8258848,12.797115 17.8838283,11.1669486 12.1121964,13.9274902 C10.2946766,14.7968005 11.4817673,20.9892693 11.016337,21.4524057 L11.0118334,19.5185547 Z" id="Path" fill="#E4E4E4" fill-rule="nonzero"></path>
                    <path d="M30.156877,18.0710449 C29.8794933,18.7356524 27.7161719,19.1785066 26.2521363,19.5279079 C24.7453431,19.8875135 17.9559902,18.5690663 16.4595226,18.8696289 C12.2966632,19.705731 11.3539245,22.5884688 11.3539245,22.5884688 C11.3539245,22.5884688 11.4863616,27.0232334 11.3539245,26.6896973 C10.5579822,23.8224055 10.0578599,25.4431744 10.0150342,19.5279079 C9.97206179,13.6127813 14.6856774,8.14208984 22.0695939,8.14208984 C23.1600791,8.14208984 24.3846242,8.29085912 25.5153632,8.57395611 C25.9419894,8.68076822 26.0692971,8 26.0692971,8 C26.0692971,8 27.4445421,9.23638842 27.7519188,9.40244834 C28.4243979,9.76575432 28.9424226,10.2025858 29.2016894,10.7063323 C29.2016894,10.7063323 30.8003206,9.67271993 32.1663437,11.4700391 C32.9401399,12.4881283 34.0147428,14.9396537 34.0147428,18.4889814 C34.0147428,21.2594988 32.7264298,25.6674805 32.5706732,25.6674805 C32.4669333,25.6674805 32.0884709,23.9462891 31.4352861,20.5039062 L30.156877,18.0710449 Z" id="Path" fill="#00155F" fill-rule="nonzero" transform="translate(22.014743, 17.353805) scale(-1, 1) translate(-22.014743, -17.353805) "></path>
                </g>
                <path d="M172.27907,0 C174.336525,0 176,0.718047415 176,1.60615869 L176,106.403289 C175.978112,107.281953 174.314637,108 172.257182,108 L3.72093023,108 C1.66347469,108 0,107.281953 0,106.393841 L0,1.60615869 C0,0.718047415 1.66347469,0 3.72093023,0 L172.27907,0 Z" id="Path-2" fill="url(#linearGradient-4)" fill-rule="nonzero" opacity="0.62" style="mix-blend-mode: multiply;"></path>
            </g>
        </g>
    </g>
</svg>