<?xml version="1.0" encoding="UTF-8"?>
<svg width="84px" height="23px" viewBox="0 0 84 23" version="1.1" xmlns="http://www.w3.org/2000/svg" xmlns:xlink="http://www.w3.org/1999/xlink">
    <title>0F315DA3-60DA-4D2E-B65C-755577D11E2C@3x</title>
    <defs>
        <path d="M80.4189105,16.3299843 C82.4887566,16.3299843 83.6616699,17.3956941 83.6616699,19.2606863 C83.6616699,21.1256784 82.3507668,22.3912088 80.073936,22.3912088 L74.6923347,22.3912088 L74.6923347,20.1931823 L80.073936,20.1931823 C80.6258952,20.1931823 80.9708688,19.860148 80.9708688,19.3939 C80.9708688,18.9276519 80.6258952,18.5946176 80.073936,18.5946176 L77.5901196,18.5946176 C75.5892675,18.5946176 74.3473602,17.5289078 74.3473602,15.6639157 C74.3473602,13.9321373 75.6582624,12.6 77.9350941,12.6 L83.4546852,12.6 L82.4197617,14.7980265 L77.9350941,14.7980265 C77.4521298,14.7980265 77.0381604,15.0644539 77.0381604,15.530702 C77.0381604,15.99695 77.3831349,16.3299843 77.9350941,16.3299843 L80.4189105,16.3299843 Z M70.5526407,16.3299843 C72.6224877,16.3299843 73.795401,17.3956941 73.795401,19.2606863 C73.795401,21.1256784 72.4844979,22.3912088 70.2076662,22.3912088 L64.8260649,22.3912088 L64.8260649,20.1931823 L70.2076662,20.1931823 C70.7596254,20.1931823 71.1045999,19.860148 71.1045999,19.3939 C71.1045999,18.9276519 70.7596254,18.5946176 70.2076662,18.5946176 L67.7238507,18.5946176 C65.7229986,18.5946176 64.4810904,17.5289078 64.4810904,15.6639157 C64.4810904,13.9321373 65.7919935,12.6 68.0688252,12.6 L73.5884163,12.6 L72.5534928,14.7980265 L68.0688252,14.7980265 C67.5858609,14.7980265 67.1718915,15.0644539 67.1718915,15.530702 C67.1718915,15.99695 67.516866,16.3299843 68.0688252,16.3299843 L70.5526407,16.3299843 Z M54.8218062,22.324602 L54.8218062,12.6 L63.308178,12.6 L63.308178,14.7980265 L57.5126073,14.7980265 L57.5126073,16.3299843 L63.1701882,16.3299843 L63.1701882,18.5280108 L57.5126073,18.5280108 L57.5126073,20.1265755 L63.308178,20.1265755 L63.308178,22.324602 L54.8218062,22.324602 Z M49.5091998,16.7296255 C50.2681437,16.7296255 50.6821131,16.3299843 50.751108,15.7971294 C50.751108,15.2642745 50.3371386,14.7980265 49.5091998,14.7980265 L46.6804089,14.7980265 L46.6804089,16.7296255 L49.5091998,16.7296255 Z M53.4419082,15.7305225 C53.4419082,17.2624804 52.4069847,18.4614039 50.751108,18.7944382 L54.0628623,22.324602 L50.751108,22.324602 L47.7153324,18.9276519 L46.7494038,18.9276519 L46.7494038,22.324602 L44.0586036,22.324602 L44.0586036,12.6 L49.8541743,12.6 C52.0620102,12.6 53.4419082,13.8655304 53.4419082,15.7305225 Z M38.9529819,16.9294461 C39.7119258,16.9294461 40.1258952,16.463198 40.1948901,15.8637363 C40.1948901,15.2642745 39.7809207,14.7980265 38.9529819,14.7980265 L36.0551961,14.7980265 L36.0551961,16.9294461 L38.9529819,16.9294461 Z M39.2289615,12.6 C41.4367974,12.6 42.8166954,13.9321373 42.8166954,15.8637363 C42.8166954,17.7287284 41.4367974,19.1274725 39.1599666,19.1274725 L36.0551961,19.1274725 L36.0551961,22.324602 L33.3643959,22.324602 L33.3643959,12.6 L39.2289615,12.6 Z M32.8814316,12.6 L28.4657589,17.3290872 L33.0194214,22.324602 L29.5006815,22.324602 L26.7408864,19.2606863 L24.0500853,22.324602 L20.6003412,22.324602 L25.0850088,17.3956941 L20.6693361,12.6 L24.1880751,12.6 L26.8098813,15.530702 L29.4316866,12.6 L32.8814316,12.6 Z M11.7,22.324602 L11.7,12.6 L20.1863718,12.6 L20.1863718,14.7980265 L14.3908011,14.7980265 L14.3908011,16.3299843 L20.048382,16.3299843 L20.048382,18.5280108 L14.3908011,18.5280108 L14.3908011,20.1265755 L20.1863718,20.1265755 L20.1863718,22.324602 L11.7,22.324602 Z M80.5860307,5.92801077 L80.5860307,8.17124146e-14 L83.2078364,8.17124146e-14 L83.2078364,9.72460196 L79.9650767,9.72460196 L75.7563884,3.53016371 L75.7563884,9.72460196 L73.0655878,9.72460196 L73.0655878,8.17124146e-14 L76.4463373,8.17124146e-14 L80.5860307,5.92801077 Z M64.9241908,5.59497646 L67.6839864,5.59497646 L66.3040886,2.33124019 L64.9241908,5.59497646 Z M64.6482112,8.17124146e-14 L68.0979557,8.17124146e-14 L72.6516184,9.72460196 L69.6158433,9.72460196 L68.7189097,7.72639605 L64.0272572,7.72639605 L63.1993186,9.72460196 L60.2325383,9.72460196 L64.6482112,8.17124146e-14 Z M55.8168655,4.92890783 C55.8168655,6.66068625 56.8517888,7.52657546 58.4386712,7.4599686 L60.0255536,7.4599686 L58.9216354,9.65799503 L58.0247019,9.65799503 C55.0579217,9.65799503 53.1260647,7.92621664 53.1260647,4.92890783 L53.1260647,4.72908724 C53.1260647,2.06481274 54.850937,8.17124146e-14 58.1626916,8.17124146e-14 L61.4054515,8.17124146e-14 L61.4054515,2.26463333 L58.3696763,2.26463333 C56.6448041,2.26463333 55.8168655,3.26373627 55.8168655,4.72908724 L55.8168655,4.92890783 Z M49.0553663,8.17124146e-14 L51.746167,8.17124146e-14 L51.746167,4.86230096 L51.746167,9.72460196 L50.3662692,9.72460196 L49.0553663,9.72460196 L49.0553663,4.86230096 L49.0553663,8.17124146e-14 Z M43.673765,4.12962547 C44.5017036,4.12962547 44.9156729,3.7299843 44.9156729,3.1971294 C44.9156729,2.6642745 44.5017036,2.19802647 43.673765,2.19802647 L40.8449744,2.19802647 L40.8449744,4.12962547 L43.673765,4.12962547 Z M47.6064736,3.13052254 C47.6064736,4.66248038 46.6405451,5.8614039 44.9846678,6.19443821 L48.2964225,9.72460196 L44.9156729,9.72460196 L41.8798978,6.32765194 L40.9139693,6.32765194 L40.9139693,9.72460196 L38.2231687,9.72460196 L38.2231687,8.17124146e-14 L44.0187394,8.17124146e-14 C46.2265758,8.17124146e-14 47.6064736,1.26553039 47.6064736,3.13052254 Z M27.9429302,9.72460196 L27.9429302,8.17124146e-14 L36.4293015,8.17124146e-14 L36.4293015,2.19802647 L30.6337308,2.19802647 L30.6337308,3.7299843 L36.2913117,3.7299843 L36.2913117,5.92801077 L30.6337308,5.92801077 L30.6337308,7.52657546 L36.4293015,7.52657546 L36.4293015,9.72460196 L27.9429302,9.72460196 Z M19.3875638,6.12783135 L21.6643953,8.17124146e-14 L25.8730835,8.17124146e-14 L25.8730835,9.72460196 L23.2512777,9.72460196 L23.2512777,2.73088136 L20.560477,9.72460196 L18.1456559,9.72460196 L15.5238501,2.73088136 L15.5238501,9.72460196 L12.9020443,9.72460196 L12.9020443,8.17124146e-14 L17.1107325,8.17124146e-14 L19.3875638,6.12783135 Z M4.76064736,5.59497646 L7.52044293,5.59497646 L6.14054515,2.33124019 L4.76064736,5.59497646 Z M4.41567292,8.17124146e-14 L7.93441227,8.17124146e-14 L12.4190801,9.72460196 L9.38330496,9.72460196 L8.48637138,7.72639605 L3.79471891,7.72639605 L2.96678024,9.72460196 L0,9.72460196 L4.41567292,8.17124146e-14 Z" id="path-1"></path>
    </defs>
    <g id="Original" stroke="none" stroke-width="1" fill="none" fill-rule="evenodd">
        <g id="ASSETS" transform="translate(-456.000000, -488.000000)">
            <g id="Logo-en-color" transform="translate(456.000000, 488.000000)">
                <mask id="mask-2" fill="white">
                    <use xlink:href="#path-1"></use>
                </mask>
                <use id="Combined-Shape" fill="#0070D0" fill-rule="nonzero" xlink:href="#path-1"></use>
                <g id="color/black" mask="url(#mask-2)" fill="#FFFFFF">
                    <rect id="Change-Fill-Color" x="0" y="0" width="83.7" height="22.5"></rect>
                </g>
            </g>
        </g>
    </g>
</svg>