<?xml version="1.0" encoding="UTF-8"?>
<svg width="11px" height="14px" viewBox="0 0 11 14" version="1.1" xmlns="http://www.w3.org/2000/svg" xmlns:xlink="http://www.w3.org/1999/xlink">
    <title>1CEC5CAF-1191-4D5F-8B72-4DA4B09DA3F9@3x</title>
    <g id="Original" stroke="none" stroke-width="1" fill="none" fill-rule="evenodd">
        <g id="ASSETS" transform="translate(-335.000000, -389.000000)" fill="#75787B">
            <g id="SECURITY" transform="translate(335.000000, 389.000000)">
                <path d="M5.5,0 C5.24777115,0 5.00718363,0.099001804 4.83362196,0.273770295 C3.81694567,1.30184005 2.65281252,1.76216476 1.95115772,1.76216476 C1.53277532,1.76216476 0.942242319,1.75037883 0.935892502,1.75037883 C0.929542685,1.75004209 0.923192868,1.75004209 0.91684305,1.75004209 C0.677313835,1.75004209 0.446956578,1.83961515 0.275511513,1.99956705 C0.0994804695,2.16457005 0,2.38951293 0,2.62489477 L0,8.40841852 C0,9.84899579 0.892854852,11.227276 2.65387082,12.5055442 C3.87091912,13.3888154 5.07808992,13.9036921 5.12888846,13.9252435 C5.24706561,13.9747444 5.37370919,14 5.5,14 C5.62664358,14 5.75293439,13.9747444 5.87111154,13.9252435 C5.92191008,13.9036921 7.12908088,13.3888154 8.34648194,12.5055442 C10.1074979,11.227276 11,9.84899579 11,8.40841852 L11,2.62489477 C11,2.14167168 10.5893785,1.75004209 10.0831569,1.75004209 L9.06789173,1.75004209 C8.35071516,1.75004209 7.17529344,1.29375827 6.16637804,0.273770295 C5.99316914,0.099001804 5.75222885,0 5.5,0 M5.5,0.874852676 C6.68635751,2.07398677 8.10871657,2.62489477 9.06789173,2.62489477 L10.0831569,2.62489477 L10.0831569,8.40841852 C10.0831569,11.1878773 5.5,13.1251473 5.5,13.1251473 C5.5,13.1251473 0.91684305,11.1878773 0.91684305,8.40841852 L0.91684305,2.62489477 C0.91684305,2.62489477 1.51795908,2.63735418 1.95115772,2.63735418 C2.91103842,2.63735418 4.31364249,2.07398677 5.5,0.874852676" id="Fill-1"></path>
            </g>
        </g>
    </g>
</svg>